<svg fill="white" xmlns="http://www.w3.org/2000/svg" viewBox="0 0 333334 311489" shape-rendering="geometricPrecision" text-rendering="geometricPrecision" image-rendering="optimizeQuality" fill-rule="evenodd" clip-rule="evenodd"><path d="M69162 154647c0-6798 1140-13492 3419-20081 2280-6589 5607-12498 9979-17728 4374-5230 9677-9465 15910-12708 6235-3243 13352-4863 21355-4863 9584 0 17888 2222 24913 6668 7026 4444 12259 10328 15702 17649l-20796 16628c-931-2719-2163-4967-3698-6746-1535-1778-3233-3190-5094-4235s-3792-1778-5792-2196c-2000-419-3931-627-5792-627-3908 0-7281 863-10119 2588-2837 1726-5164 3974-6978 6746-1814 2771-3163 5909-4048 9413-884 3504-1325 6982-1325 10433 0 3869 511 7583 1535 11139s2512 6693 4467 9413c1954 2719 4349 4890 7188 6511 2837 1622 6025 2432 9559 2432 1861 0 3769-236 5722-706 1955-469 3839-1255 5653-2353s3442-2510 4884-4235c1443-1726 2583-3843 3419-6355l22192 14904c-1489 4079-3746 7739-6770 10982s-6466 5961-10328 8159c-3861 2196-8001 3869-12422 5020-4420 1150-8723 1725-12910 1725-7350 0-14073-1647-20168-4941-6094-3294-11352-7661-15771-13100s-7839-11610-10258-18512c-2419-6903-3629-13910-3629-21022zM42775 0h247783c11777 0 22474 4809 30221 12555 7746 7746 12555 18443 12555 30221v225938c0 11777-4808 22474-12555 30221-7746 7746-18443 12554-30221 12554H42775c-11777 0-22474-4808-30221-12554C4808 291189-1 280492-1 268714V42776c0-11777 4809-22474 12555-30221C20300 4809 30998 0 42775 0zm247783 26883H42775c-4356 0-8327 1792-11213 4679-2887 2886-4679 6857-4679 11213v225938c0 4356 1792 8326 4679 11213s6857 4679 11213 4679h247783c4356 0 8327-1792 11213-4679s4678-6857 4678-11213V42775c0-4356-1792-8327-4678-11213-2887-2887-6857-4679-11213-4679zM171918 154647c0-6798 1139-13492 3419-20081s5607-12498 9979-17728c4374-5230 9677-9465 15911-12708 6235-3243 13352-4863 21354-4863 9584 0 17888 2222 24913 6668 7026 4444 12259 10328 15702 17649l-20796 16628c-930-2719-2163-4967-3698-6746-1535-1778-3234-3190-5094-4235s-3792-1778-5792-2196c-2000-419-3931-627-5792-627-3908 0-7281 863-10119 2588-2839 1726-5164 3974-6979 6746-1814 2771-3164 5909-4047 9413-884 3504-1326 6982-1326 10433 0 3869 512 7583 1535 11139s2512 6693 4466 9413c1955 2719 4349 4890 7188 6511 2839 1622 6025 2432 9561 2432 1861 0 3769-236 5722-706 1955-469 3837-1255 5653-2353 1813-1098 3442-2510 4883-4235 1442-1726 2583-3843 3420-6355l22191 14904c-1489 4079-3745 7739-6769 10982s-6467 5961-10328 8159c-3862 2196-8002 3869-12422 5020-4420 1150-8723 1725-12909 1725-7350 0-14072-1647-20168-4941-6094-3294-11352-7661-15771-13100-4420-5439-7839-11610-10259-18512-2419-6903-3629-13910-3629-21022h3z" fill-rule="nonzero"/></svg>